<svg xmlns="http://www.w3.org/2000/svg" width="75" height="75" viewBox="0 0 75 75"><defs><linearGradient id="a" gradientUnits="userSpaceOnUse" x1="97.853" y1="20" x2="49.147" y2="95"><stop stop-opacity=".33" stop-color="#161f03" offset="0"/><stop stop-opacity="0" offset="1"/></linearGradient><clipPath id="b"><path d="M38 93V22h71v71zm1.757-35.5c0 18.636 15.107 33.743 33.743 33.743 18.636 0 33.743-15.107 33.743-33.743 0-18.636-15.107-33.743-33.743-33.743-18.636 0-33.743 15.107-33.743 33.743z" fill="#fff"/></clipPath></defs><path d="M37.5 0C58.21 0 75 16.79 75 37.5S58.21 75 37.5 75 0 58.21 0 37.5 16.79 0 37.5 0z" fill="#6d8f45"/><path d="M73.5 20C94.21 20 111 36.79 111 57.5S94.21 95 73.5 95 36 78.21 36 57.5 52.79 20 73.5 20z" fill="url(#a)" transform="translate(-36 -20)"/><path d="M37.5 3.757c18.636 0 33.743 15.107 33.743 33.743 0 18.636-15.107 33.743-33.743 33.743-18.636 0-33.743-15.107-33.743-33.743 0-18.636 15.107-33.743 33.743-33.743z" fill="#9cba53"/><path d="M73.5 23.757c18.636 0 33.743 15.107 33.743 33.743 0 18.636-15.107 33.743-33.743 33.743-18.636 0-33.743-15.107-33.743-33.743 0-18.636 15.107-33.743 33.743-33.743z" fill="none" stroke-dasharray="0" stroke-linejoin="round" stroke-linecap="round" stroke="#9cba53" stroke-miterlimit="50" stroke-width="2" clip-path="url(&quot;#b&quot;)" transform="translate(-36 -20)"/><path d="M25.7 21.928l26.87 26.87-4.242 4.243-26.87-26.87z" fill="#fff"/><path d="M53.01 26.22L26.22 53.007l-4.23-4.23 26.79-26.79z" fill="#fff"/></svg>